<svg width="50" height="50" viewBox="0 0 50 50" fill="none" xmlns="http://www.w3.org/2000/svg">
<g clip-path="url(#clip0)">
<path d="M48.0212 11.8598L30.6751 3.68243C30.497 3.59882 30.2954 3.59882 30.1133 3.68243L12.7687 11.8598C12.4898 11.991 12.3351 12.2989 12.4054 12.6028C12.4711 12.9036 12.7406 13.1184 13.0476 13.1184H15.2383H16.2039V32.4286C16.2039 33.213 16.8383 33.8458 17.6219 33.8458H26.9087V22.7958H33.8821V33.8465H43.1672C43.9501 33.8465 44.5867 33.213 44.5867 32.4293V13.1184H45.5532H47.7414C48.0485 13.1184 48.3172 12.9036 48.3836 12.6028C48.4533 12.2989 48.3032 11.9911 48.0212 11.8598Z" fill="#305461"/>
<path d="M48.0212 11.8598L30.6751 3.68243C30.497 3.59882 30.2955 3.59882 30.1134 3.68243L17.3047 9.71995L44.5868 31.1466V13.1184H45.5533H47.7415C48.0486 13.1184 48.3173 12.9036 48.3837 12.6028C48.4533 12.2989 48.3032 11.9911 48.0212 11.8598Z" fill="#305461"/>
<path d="M49.0399 25.5512C48.0493 24.8872 46.707 25.1528 46.043 26.1449L42.6508 31.2152L39.8891 32.5746H25.6055C28.4039 31.3035 34.4797 31.0684 34.4797 29.5364C34.4797 26.9574 34.6157 26.341 31.2844 26.341H20.1461C20.1173 26.341 20.0899 26.3489 20.0609 26.3489C19.214 26.3277 18.3609 26.6309 17.7163 27.277L9.83988 35.1537C9.80864 35.1857 9.78751 35.2224 9.75706 35.256H9.73752L1.0922 43.8998C0.477365 43.9763 0 44.4951 0 45.1318C0 45.8216 0.558595 46.3802 1.24692 46.3802H19.5984C20.2868 46.3802 20.846 45.8216 20.846 45.1318C20.846 44.7232 20.6453 44.3615 20.3406 44.1341L22.6258 40.6091H34.4812C34.5844 40.6091 34.6813 40.5865 34.7821 40.5787C35.3344 40.649 35.9109 40.5575 36.4328 40.2645L44.6094 35.6801C45.1844 35.3567 45.5837 34.8505 45.7977 34.2778L49.6345 28.5465C50.2985 27.5559 50.0329 26.2138 49.0399 25.5512Z" fill="#EE8B7B"/>
<path d="M45.7977 34.2779L49.6345 28.5466C50.2985 27.556 50.0329 26.2139 49.04 25.5513C48.0493 24.8873 46.7071 25.1529 46.0431 26.145L42.6509 31.2153L39.8891 32.5747H25.6055C28.4039 31.3036 34.4797 31.0685 34.4797 29.5365C34.4797 26.9575 34.6157 26.3411 31.2844 26.3411H20.1461C20.1172 26.3411 20.0898 26.349 20.0609 26.349C19.214 26.3278 18.3609 26.631 17.7163 27.2771L16.2413 28.7529L28.0975 40.6092H34.4803C34.5835 40.6092 34.6804 40.5866 34.7811 40.5788C35.3335 40.6491 35.91 40.5576 36.4319 40.2646L44.6093 35.6802C45.1845 35.3568 45.5837 34.8497 45.7977 34.2779Z" fill="#FD8A78"/>
</g>
<defs>
<clipPath id="clip0">
<rect width="50" height="50" fill="white"/>
</clipPath>
</defs>
</svg>
